{"title":"Any Body Can Dance 2 2015 720p DvDScr x264 AC3 5.1 (Audio Cleane","uid":12048326,"size":2236122422,"categoryP":"video","categoryS":"hd___movies","magnet":"?xt=urn:btih:ed24a5f2d7083432cc8c66d7f9dfd1e6f7422197&amp;dn=Any+Body+Can+Dance+2+2015+720p+DvDScr+x264+AC3+5.1+%28Audio+Cleane&amp;tr=udp%3A%2F%2Ftracker.openbittorrent.com%3A80&amp;tr=udp%3A%2F%2Fopen.demonii.com%3A1337&amp;tr=udp%3A%2F%2Ftracker.coppersurfer.tk%3A6969&amp;tr=udp%3A%2F%2Fexodus.desync.com%3A6969","seeders":0,"leechers":0,"uploader":"Urmit","files":21,"time":1434950320,"description":"[center][img]http://i.imgur.com/ZbGI2j7.png[/img]\n\n[img]http://i.imgur.com/kXgK8YB.jpg[/img]\n\n[size=6][color=blue][b]Any Body Can Dance 2 2015 720p DvDScr x264 AC3 5.1 (Audio Cleaned) M2Tv[/b][/color][/size]\n\n[img]http://i.imgur.com/tWjvQAx.png[/img]\n\n[code][* Year ].............: [ (2015)\n\n[* Source ]...........: [ -* M2Tv (Thanks) *-\n[* Ripper ]...........: [ -* -* Arr0w *- *-\nFormat                                   : Matroska\nFormat version                           : Version 2\nFile size                                : 2.06 GiB\nDuration                                 : 2h 24mn\nOverall bit rate mode                    : Variable\nOverall bit rate                         : 2 040 Kbps\nEncoded date                             : UTC 2015-06-21 06:13:52\n\n\n[ * Video ]\nFormat                                   : AVC\nFormat/Info                              : Advanced Video Codec\nFormat profile                           : &lt;a class=&quot;__cf_email__&quot; href=&quot;/cdn-cgi/l/email-protection&quot; data-cfemail=&quot;733b1a141b333f475d42&quot;&gt;[email&amp;#160;protected]&lt;/a&gt;&lt;script data-cfhash='f9e31' type=&quot;text/javascript&quot;&gt;\n/* &lt;![CDATA[ */!function(){try{var t=&quot;currentScript&quot;in document?document.currentScript:function(){for(var t=document.getElementsByTagName(&quot;script&quot;),e=t.length;e--;)if(t[e].getAttribute(&quot;data-cfhash&quot;))return t[e]}();if(t&amp;&amp;t.previousSibling){var e,r,n,i,c=t.previousSibling,a=c.getAttribute(&quot;data-cfemail&quot;);if(a){for(e=&quot;&quot;,r=parseInt(a.substr(0,2),16),n=2;a.length-n;n+=2)i=parseInt(a.substr(n,2),16)^r,e+=String.fromCharCode(i);e=document.createTextNode(e),c.parentNode.replaceChild(e,c)}t.parentNode.removeChild(t);}}catch(u){}}()/* ]]&gt; */&lt;/script&gt;\nFormat settings, CABAC                   : Yes\nFormat settings, ReFrames                : 5 frames\nCodec ID                                 : V_MPEG4/ISO/AVC\nDuration                                 : 2h 24mn\nBit rate mode                            : Variable\nBit rate                                 : 1 846 Kbps\nMaximum bit rate                         : 40.0 Mbps\nWidth                                    : 1 240 pixels\nHeight                                   : 504 pixels\nDisplay aspect ratio                     : 2.460\nFrame rate mode                          : Constant\nFrame rate                               : 25.000 fps\nColor space                              : YUV\nChroma subsampling                       : 4:2:0\nBit depth                                : 8 bits\nScan type                                : Progressive\nBits/(Pixel*Frame)                       : 0.118\nStream size                              : 1.82 GiB (89%)\nWriting library                          : x264 core 146 r2538 121396c\nEncoding settings                        : cabac=1 / ref=6 / deblock=1:0:0 / analyse=0x3:0x133 / me=umh / subme=9 / psy=1 / psy_rd=1.00:0.00 / mixed_ref=1 / me_range=16 / chroma_me=1 / trellis=2 / 8x8dct=1 / cqm=0 / deadzone=21,11 / fast_pskip=1 / chroma_qp_offset=-2 / threads=12 / lookahead_threads=1 / sliced_threads=0 / slices=4 / nr=0 / decimate=1 / interlaced=0 / bluray_compat=1 / constrained_intra=0 / bframes=3 / b_pyramid=1 / b_adapt=2 / b_bias=0 / direct=3 / weightb=1 / open_gop=1 / weightp=1 / keyint=25 / keyint_min=1 / scenecut=40 / intra_refresh=0 / rc_lookahead=25 / rc=2pass / mbtree=1 / bitrate=1846 / ratetol=1.0 / qcomp=0.60 / qpmin=0 / qpmax=69 / qpstep=4 / cplxblur=20.0 / qblur=0.5 / vbv_maxrate=40000 / vbv_bufsize=30000 / nal_hrd=vbr / filler=0 / ip_ratio=1.40 / aq=1:1.00\nDefault                                  : Yes\nForced                                   : No\nFormat                                   : AVC\nFormat/Info                              : Advanced Video Codec\nFormat profile                           : &lt;a class=&quot;__cf_email__&quot; href=&quot;/cdn-cgi/l/email-protection&quot; data-cfemail=&quot;5119383639111d657f60&quot;&gt;[email&amp;#160;protected]&lt;/a&gt;&lt;script data-cfhash='f9e31' type=&quot;text/javascript&quot;&gt;\n/* &lt;![CDATA[ */!function(){try{var t=&quot;currentScript&quot;in document?document.currentScript:function(){for(var t=document.getElementsByTagName(&quot;script&quot;),e=t.length;e--;)if(t[e].getAttribute(&quot;data-cfhash&quot;))return t[e]}();if(t&amp;&amp;t.previousSibling){var e,r,n,i,c=t.previousSibling,a=c.getAttribute(&quot;data-cfemail&quot;);if(a){for(e=&quot;&quot;,r=parseInt(a.substr(0,2),16),n=2;a.length-n;n+=2)i=parseInt(a.substr(n,2),16)^r,e+=String.fromCharCode(i);e=document.createTextNode(e),c.parentNode.replaceChild(e,c)}t.parentNode.removeChild(t);}}catch(u){}}()/* ]]&gt; */&lt;/script&gt;\nFormat settings, CABAC                   : Yes\nFormat settings, ReFrames                : 5 frames\nCodec ID                                 : V_MPEG4/ISO/AVC\nDuration                                 : 2h 24mn\nBit rate mode                            : Variable\nBit rate                                 : 1 846 Kbps\nMaximum bit rate                         : 40.0 Mbps\nWidth                                    : 1 240 pixels\nHeight                                   : 504 pixels\nDisplay aspect ratio                     : 2.460\nFrame rate mode                          : Constant\nFrame rate                               : 25.000 fps\nColor space                              : YUV\nChroma subsampling                       : 4:2:0\nBit depth                                : 8 bits\nScan type                                : Progressive\nBits/(Pixel*Frame)                       : 0.118\nStream size                              : 1.82 GiB (89%)\nWriting library                          : x264 core 146 r2538 121396c\nEncoding settings                        : cabac=1 / ref=6 / deblock=1:0:0 / analyse=0x3:0x133 / me=umh / subme=9 / psy=1 / psy_rd=1.00:0.00 / mixed_ref=1 / me_range=16 / chroma_me=1 / trellis=2 / 8x8dct=1 / cqm=0 / deadzone=21,11 / fast_pskip=1 / chroma_qp_offset=-2 / threads=12 / lookahead_threads=1 / sliced_threads=0 / slices=4 / nr=0 / decimate=1 / interlaced=0 / bluray_compat=1 / constrained_intra=0 / bframes=3 / b_pyramid=1 / b_adapt=2 / b_bias=0 / direct=3 / weightb=1 / open_gop=1 / weightp=1 / keyint=25 / keyint_min=1 / scenecut=40 / intra_refresh=0 / rc_lookahead=25 / rc=2pass / mbtree=1 / bitrate=1846 / ratetol=1.0 / qcomp=0.60 / qpmin=0 / qpmax=69 / qpstep=4 / cplxblur=20.0 / qblur=0.5 / vbv_maxrate=40000 / vbv_bufsize=30000 / nal_hrd=vbr / filler=0 / ip_ratio=1.40 / aq=1:1.00\nDefault                                  : Yes\nForced                                   : No\n\n\n[ * Audio ]\n\nFormat                                   : AC-3\nFormat/Info                              : Audio Coding 3\nMode extension                           : CM (complete main)\nFormat settings, Endianness              : Big\nCodec ID                                 : A_AC3\nDuration                                 : 2h 24mn\nBit rate mode                            : Constant\nBit rate                                 : 192 Kbps\nChannel(s)                               : 6 channels\nChannel positions                        : Front: L C R, Side: L R, LFE\nSampling rate                            : 44.1 KHz\nBit depth                                : 16 bits\nCompression mode                         : Lossy\nStream size                              : 198 MiB (9%)\nDefault                                  : Yes\n\nNote: &quot;JPEG&quot; less quality, don't judge by this.[/code]\n[img]http://i.imgur.com/5YWWhzb.png[/img]\n\n[img]http://i.imgur.com/EZtUfBS.png[/img]\n[img]http://i.imgur.com/U7qqyIg.png[/img]\n[img]http://i.imgur.com/XRyIJ4z.png[/img]\n\n\n[size=5][u][i]\n[b]Note :[/b]\n[/i][/u][/size]\n\n[color=blue][size=6][i][b]Wherever you share our stuffs, Always Give Proper Credits To &quot;Team M2Tv&quot;, Enjoy.[/b][/i][/size][/color]\n[/center]","torrent":{"xt":"urn:btih:ed24a5f2d7083432cc8c66d7f9dfd1e6f7422197","amp;dn":"Any+Body+Can+Dance+2+2015+720p+DvDScr+x264+AC3+5.1+%28Audio+Cleane","amp;tr":["udp%3A%2F%2Ftracker.openbittorrent.com%3A80","udp%3A%2F%2Fopen.demonii.com%3A1337","udp%3A%2F%2Ftracker.coppersurfer.tk%3A6969","udp%3A%2F%2Fexodus.desync.com%3A6969"],"infoHash":"ed24a5f2d7083432cc8c66d7f9dfd1e6f7422197","infoHashBuffer":{"type":"Buffer","data":[237,36,165,242,215,8,52,50,204,140,102,215,249,223,209,230,247,66,33,151]},"announce":[],"urlList":[]}}